# xmcd
#
# Track frame offsets: 
#        150
#        21782
#        40745
#        62002
#        81362
#        97432
#        117922
#        133520
#        150437
#        165627
#
# Disc length: 2430 seconds
#
# Revision: 2
# Processed by: cddbd v1.5PL3 Copyright (c) Steve Scherf et al.
# Submitted via: ExactAudioCopy v0.90b4
#
DISCID=7d097c0a
DTITLE=The Charlie Daniels Band - Me And The Boys
DYEAR=1900
DGENRE=Country
TTITLE0=Me And The Boys
TTITLE1=Still Hurtin' Me
TTITLE2=Talking To The Moon
TTITLE3=Class Of '63
TTITLE4=American Farmer
TTITLE5=M.I.A.
TTITLE6=American Rock And Roll
TTITLE7=Ever Changing Lady
TTITLE8=Louisiana Fais Dodo
TTITLE9=Drinkin' My Baby Goodbye
EXTD=
EXTT0=
EXTT1=
EXTT2=
EXTT3=
EXTT4=
EXTT5=
EXTT6=
EXTT7=
EXTT8=
EXTT9=
PLAYORDER=
